<?xml version="1.0" encoding="utf-8"?>
<!-- Generator: Adobe Illustrator 28.4.1, SVG Export Plug-In . SVG Version: 6.00 Build 0)  -->
<svg version="1.1" id="Capa_2" xmlns="http://www.w3.org/2000/svg" xmlns:xlink="http://www.w3.org/1999/xlink" x="0px" y="0px"
	 viewBox="0 0 2122 2122" style="enable-background:new 0 0 2122 2122;" xml:space="preserve">
<style type="text/css">
	.st0{fill:#19223D;}
	.st1{fill:#F18830;}
	.st2{fill:#E9600B;}
	.st3{fill:#FFFFFF;}
	.st4{fill:#F6A33A;}
	.st5{fill:#F2F2F2;}
</style>
<path class="st0" d="M1567.593,368.729c-139.376-115.2-314.407-171.566-489.777-171.564
	c-169.06,0.009-338.676,52.341-477.563,155.345c-64.381,47.75-116.248,103.718-156.298,165.148
	c-73.162,112.199-106.88,242.439-106.871,374.351c0.025,161.958,50.707,326.602,142.039,465.166
	c-57.635,168.499-87.981,350.488-91.054,526.681l-0.008,0.758c-0.007,5.77,1.202,11.32,3.398,16.229
	c3.294,7.389,8.706,13.254,15.042,17.2c6.348,3.952,13.672,6.102,21.258,6.111c5.445,0.003,11.043-1.139,16.301-3.59
	c5.257-2.439,10.126-6.204,14.051-11.066c41.842-51.711,87.82-109.21,137.359-163.089c47.283-51.445,97.832-99.518,150.719-136.095
	c116.161,65.702,249.917,99.188,383.127,99.198c161.443-0.007,322.261-49.094,449.41-150.165
	c119.382-94.952,205.602-228.94,247.448-375.251c19.057-66.657,28.207-135.171,28.207-203.509
	C1854.33,748.885,1749.392,519.088,1567.593,368.729z"/>
<path class="st1" d="M1619.187,732.962c-31.289-120.854-107.079-223.978-201.992-303.219
	c-96.017-80.163-210.927-147.706-331.153-183.615c-22.669-6.771-45.708-12.31-68.967-16.689
	c-142.356,10.968-282.209,60.474-398.989,147.114c-61.57,45.675-110.911,98.96-149.057,157.456
	c-69.636,106.795-102.004,231.134-102.012,358.001c-0.026,158.021,50.371,319.772,141.035,454.672l4.166,6.2l-2.452,7.059
	c-44.816,128.985-73.215,266.609-85.286,403.376c11.697-21.18,23.822-41.722,35.809-61.239
	c52.493-85.469,122.028-187.074,214.94-232.782c55.125-27.118,124.65-16.661,182.771-6.642
	c66.342,11.436,132.455,28.011,199.988,30.682c117.077,4.63,233.349-51.125,323.297-122.426
	C1564.068,1226.017,1679.263,964.997,1619.187,732.962z"/>
<path class="st2" d="M1548.521,391.801L1548.521,391.801c-133.509-110.375-301.684-164.7-470.705-164.702
	c-20.258-0.001-40.525,0.782-60.741,2.339c23.258,4.379,46.298,9.918,68.967,16.689c120.226,35.91,235.136,103.452,331.153,183.615
	c94.913,79.242,170.703,182.365,201.992,303.219c60.075,232.035-55.119,493.055-237.902,637.946
	c-89.947,71.301-206.22,127.056-323.297,122.426c-67.534-2.671-133.646-19.246-199.988-30.682
	c-58.121-10.019-127.646-20.476-182.771,6.642c-92.913,45.709-162.448,147.313-214.94,232.782
	c-11.987,19.517-24.111,40.059-35.809,61.239c-3.576,40.517-5.786,80.963-6.481,121.082l-0.001,0.026l-0.003,0.191
	c0.006,1.69,0.322,2.942,0.804,4.038c0.487,1.089,1.173,2.034,2.068,2.866c1.768,1.674,4.464,2.727,6.893,2.702
	c1.315-0.003,2.526-0.264,3.662-0.792c1.138-0.539,2.248-1.327,3.423-2.763c41.772-51.615,88.133-109.63,138.59-164.517
	c50.475-54.884,105.029-106.688,163.648-145.872l7.776-5.197l8.081,4.713c113.131,66.004,245.103,99.796,376.378,99.785
	c155.446,0.006,309.664-47.333,430.779-143.662c114.135-90.722,197.14-219.519,237.298-360.048
	c18.263-63.877,27.054-129.612,27.054-195.28C1824.498,757.904,1723.162,536.089,1548.521,391.801z"/>
<path class="st0" d="M1738.215,1434.73c-39.612,54.117-84.697,104.363-136.213,147.425
	c-50.846,42.502-107.933,77.381-169.239,102.613c-36.083,14.85-73.632,26.041-111.773,34.192c-6.057,1.294-5.61,5.835-0.56,8.143
	c6.875,3.143,15.327,3.1,22.568,1.553c68.118-14.557,134.028-39.371,194.315-74.345c58.069-33.687,110.683-76.397,156.991-124.917
	c26.82-28.102,51.537-58.146,74.476-89.485C1773.349,1433.667,1743.495,1427.516,1738.215,1434.73z"/>
<path class="st0" d="M1774.966,1414.709c1.197,0.021,3.056,0.239,3.893-0.792c15.198-18.719,27.587-39.55,36.781-61.841
	c0.819-1.984-10.616-4.45-11.771-4.678c-2.883-0.57-5.824-1.092-8.769-1.146c-0.93-0.017-3.443-0.298-3.893,0.792
	c-9.194,22.292-21.582,43.121-36.781,61.841c-1.048,1.291,10.889,4.504,11.772,4.678
	C1769.081,1414.133,1772.021,1414.656,1774.966,1414.709z"/>
<path class="st0" d="M315.212,1110.711c-2.327,1.795-4.656,3.664-6.635,5.846c-0.804,0.887-2.192,2.143-1.966,3.452
	c4.085,23.764,11.607,46.802,22.334,68.398c0.955,1.922,10.338-5.062,11.27-5.781c2.327-1.795,4.656-3.665,6.634-5.846
	c0.626-0.689,2.491-2.395,1.967-3.452c-10.726-21.596-18.249-44.634-22.334-68.398
	C326.201,1103.292,315.924,1110.162,315.212,1110.711z"/>
<path class="st0" d="M294.648,1082.849c0.688,2.366,12.607,1.323,14.479,1.263c1.061-0.034,14.751-0.873,14.369-2.187
	c-20.592-70.881-29.37-144.932-26.696-218.672c2.691-74.216,16.863-148.018,41.895-217.939
	c14.234-39.76,32.02-78.188,53.092-114.783c0.399-0.693-13.406-1.298-14.479-1.263c-2.724,0.087-12.703-0.705-14.368,2.188
	c-37.199,64.603-63.995,134.97-79.524,207.874c-15.426,72.42-19.814,147.236-12.461,220.931
	C275.095,1001.75,283.016,1042.809,294.648,1082.849z"/>
<path class="st0" d="M738.525,1672.547c-7.754,0.89-17.536,3.123-23.862,8.073c-58.285,45.621-111.509,97.742-158.242,155.148
	c-13.423,16.489-26.286,33.424-38.623,50.74c-3.229,4.532,12.842,2.233,13.833,2.04c6.196-1.207,16.982-3.237,21.014-8.897
	c54.533-76.543,119.837-144.919,193.846-202.847C752.673,1671.965,740.886,1672.276,738.525,1672.547z"/>
<path class="st3" d="M1610.021,1296.042c-37.945,51.188-81.083,98.641-130.269,139.261c-48.883,40.37-103.66,73.461-162.405,97.361
	c-34.871,14.187-71.107,24.901-107.926,32.674c-4.175,0.882-3.611,3.825-0.374,5.45c4.447,2.234,10.383,2.037,15.105,1.039
	c64.857-13.693,127.61-36.988,185.168-69.95c55.296-31.666,105.471-71.867,149.727-117.633
	c25.706-26.584,49.415-55.035,71.432-84.736C1633.543,1295.374,1613.592,1291.224,1610.021,1296.042z"/>
<path class="st4" d="M907.798,548.458c26.91-23.615,57.963-39.733,89.805-48.554c21.242-5.909,42.841-8.663,64.128-8.662
	c17.429,0.009,34.65,1.838,51.433,5.328c33.427-0.893,66.695,4.913,97.217,16.638c9.944,3.821,19.683,8.303,29.135,13.394
	c-18.617-62.666-53.727-116.652-105.481-154.836c-159.303-117.53-414.929-41.364-570.958,170.121
	c-156.028,211.484-153.373,478.203,5.929,595.733c118.749,87.61,291.014,67.568,435.658-35.903
	c-0.136-2.028-0.214-4.072-0.165-6.143l2.018-85.847c0.174-7.429,1.401-14.025,3.909-21.02
	c10.735-29.896,26.278-55.208,42.562-77.248c16.344-22.06,33.554-41.118,49.311-58.75c10.515-11.738,20.405-22.817,29.122-33.417
	c11.648-14.129,21.12-27.371,27.843-39.818c3.856-7.121,6.853-13.972,9.079-20.789c4.271-13.122,5.919-24.605,5.929-34.901
	c-0.005-8.034-1.014-15.381-2.841-22.33c-1.833-6.944-4.5-13.501-7.98-19.781c-6.935-12.522-17.301-24.021-30.327-33.373
	c-8.66-6.225-18.445-11.444-28.775-15.306c-1.371-0.514-2.785-0.893-4.174-1.357c-30.38,5.406-60.041,24.833-78.845,67.148
	c-15.011,33.786-54.568,49.004-88.36,33.993c-2.223-0.988-4.354-2.095-6.413-3.286c-15.838,5.909-33.901,5.888-50.569-1.518
	c-33.787-15.013-49.006-54.573-33.993-88.359C858.276,602.885,880.845,572.025,907.798,548.458z"/>
<path class="st2" d="M1020.334,633.596c-12.788,5.708-24.584,14.113-35.596,27.107c-7.316,8.686-14.267,19.514-20.388,33.275h0
	c-7.607,17.119-21.524,29.443-37.79,35.512c2.059,1.191,4.19,2.298,6.413,3.286c33.793,15.011,73.349-0.207,88.36-33.993
	c18.804-42.315,48.465-61.743,78.845-67.148c-12.554-4.209-25.703-6.518-38.446-6.507
	C1047.078,625.136,1033.104,627.948,1020.334,633.596z"/>
<path class="st2" d="M1113.166,496.57c16.726,3.478,33.017,8.606,48.645,15.236c31.295,13.31,60.06,32.694,84.009,57.818
	c15.944,16.744,29.711,36.083,40.233,57.715c14.052,28.796,22.148,61.77,22.109,96.445c0.01,25.002-4.151,50.776-12.533,76.432
	l-0.002,0.005c-4.961,15.203-11.258,29.329-18.303,42.406c-7.048,13.084-14.838,25.135-22.91,36.375
	c-16.17,22.467-33.409,41.794-49.342,59.639c-10.634,11.88-20.711,23.077-29.679,33.799c-11.979,14.29-21.896,27.71-29.08,40.357
	c-2.366,4.154-4.417,8.214-6.229,12.229l-1.732,73.694c-0.662,28.178-18.666,51.833-43.552,61.122
	c9.438,5.491,20.346,8.761,32.035,9.036c0.538,0.012,1.069,0.017,1.605,0.017c36.238,0,66.036-28.945,66.894-65.371l1.732-73.747
	c12.602-27.819,36.59-54.613,61.847-82.82c34.943-39.028,74.548-83.264,93.695-141.932
	c40.875-125.238-22.868-229.832-113.091-278.423c-9.452-5.091-19.191-9.573-29.135-13.394
	C1179.861,501.483,1146.592,495.677,1113.166,496.57z"/>
<path class="st2" d="M1121.957,1205.316c-7.312-0.172-14.41,0.353-21.264,1.38c33.418,11.264,56.507,36.582,55.827,65.478
	c-0.773,32.917-32.158,59.7-73.547,65.902c10.956,3.692,23.013,5.887,35.718,6.186c51.46,1.21,93.908-28.913,94.81-67.283
	C1214.403,1238.611,1173.418,1206.526,1121.957,1205.316z"/>
<path class="st5" d="M1138.353,1098.721l1.732-73.694c1.812-4.015,3.863-8.075,6.229-12.229
	c7.184-12.647,17.101-26.067,29.08-40.357c8.967-10.722,19.045-21.919,29.679-33.799c15.933-17.845,33.172-37.172,49.342-59.639
	c8.072-11.24,15.861-23.291,22.91-36.375c7.045-13.077,13.342-27.203,18.303-42.406l0.002-0.005
	c8.382-25.656,12.542-51.43,12.533-76.432c0.038-34.676-8.057-67.65-22.109-96.445c-10.522-21.631-24.289-40.971-40.233-57.715
	c-23.948-25.124-52.714-44.508-84.009-57.818c-15.628-6.629-31.919-11.757-48.645-15.236c-16.783-3.49-34.004-5.319-51.433-5.328
	c-21.288-0.001-42.886,2.753-64.128,8.662c-31.843,8.821-62.895,24.94-89.805,48.554c-26.954,23.567-49.523,54.427-65.802,91.156
	c-15.013,33.787,0.207,73.347,33.993,88.359c16.668,7.406,34.731,7.427,50.569,1.518c16.266-6.069,30.184-18.393,37.79-35.512h0
	c6.121-13.761,13.072-24.589,20.388-33.275c11.012-12.995,22.808-21.399,35.596-27.107c12.771-5.649,26.744-8.46,41.398-8.467
	c12.743-0.011,25.892,2.298,38.446,6.507c1.388,0.465,2.803,0.843,4.174,1.357c10.329,3.862,20.114,9.082,28.775,15.306
	c13.025,9.351,23.392,20.851,30.327,33.373c3.48,6.28,6.147,12.837,7.98,19.781c1.827,6.949,2.836,14.296,2.841,22.33
	c-0.01,10.296-1.658,21.78-5.929,34.901c-2.226,6.817-5.223,13.668-9.079,20.789c-6.723,12.447-16.194,25.689-27.843,39.818
	c-8.717,10.6-18.607,21.679-29.122,33.417c-15.756,17.632-32.967,36.69-49.311,58.75c-16.285,22.04-31.828,47.352-42.562,77.248
	c-2.508,6.995-3.735,13.591-3.909,21.02l-2.018,85.847c-0.049,2.071,0.029,4.115,0.165,6.143
	c2.301,34.155,30.296,61.535,65.187,62.356c8.784,0.207,17.191-1.335,24.948-4.23
	C1119.687,1150.554,1137.69,1126.899,1138.353,1098.721z"/>
<path class="st5" d="M1156.52,1272.175c0.68-28.896-22.409-54.214-55.827-65.478c-10.955-3.693-23.012-5.888-35.717-6.186
	c-51.461-1.21-93.909,28.913-94.811,67.282c-0.901,38.369,40.083,70.454,91.545,71.664c7.312,0.172,14.41-0.354,21.263-1.38
	C1124.361,1331.875,1155.746,1305.092,1156.52,1272.175z"/>
<path class="st3" d="M577.059,658.478c33.905-53.833,73.256-104.346,119.134-148.528c45.841-44.146,97.983-81.445,154.987-109.81
	c33.639-16.738,68.743-30.224,104.803-40.745c3.948-1.152,3.835-3.712,0.375-5.45c-4.182-2.1-10.643-2.341-15.105-1.039
	c-63.858,18.631-124.84,46.575-179.897,83.991c-52.655,35.783-99.54,79.479-140.145,128.449
	c-23.539,28.389-44.962,58.469-64.61,89.666C553.66,659.681,573.962,663.394,577.059,658.478z"/>
</svg>
