<?xml version="1.0" encoding="utf-8"?>
<!-- Generator: Adobe Illustrator 28.4.1, SVG Export Plug-In . SVG Version: 6.00 Build 0)  -->
<svg version="1.1" id="Capa_2" xmlns="http://www.w3.org/2000/svg" xmlns:xlink="http://www.w3.org/1999/xlink" x="0px" y="0px"
	 viewBox="0 0 2279 1975" style="enable-background:new 0 0 2279 1975;" xml:space="preserve">
<style type="text/css">
	.st0{fill:#0066B0;}
	.st1{fill:#005695;}
	.st2{fill:#10263B;}
	.st3{fill:#FFFFFF;}
</style>
<g>
	<path d="M1949.609,863.18c-31.059-117.105-173.969-243.926-392.078-347.945c-211.461-100.848-457.918-161.059-659.27-161.059
		c-75.34,0-144.352,8.172-205.117,24.293C497.906,430.258,377.281,551.707,334.609,739.43
		c-37.504,164.981-5.512,349.895,27.93,475.957c28.062,105.789,103.152,194.5,217.152,256.547
		c109.269,59.469,247.32,90.906,399.242,90.906c93.051,0,188.266-11.836,283.133-35.188
		c110.418,68.52,313.672,93.012,456.898,93.012c4.797,0,9.41-0.031,13.859-0.09c8.781-0.117,16.602-5.578,19.734-13.781
		c3.137-8.207,0.949-17.496-5.516-23.438c-97.184-89.305-123.117-146.656-131.176-190.324
		c121.02-65.941,215.555-145.27,273.961-230.016C1955.641,1067.516,1976.312,963.836,1949.609,863.18z"/>
	<path class="st0" d="M1783.387,779.977c-19.633-74.008-88.105-150.621-185.809-220.766
		c-205.152-107.187-470.805-183.598-699.316-183.598c-71.129,0-138.637,7.398-199.621,23.574
		C276.539,511.16,310.859,936.957,383.258,1209.891c18.664,70.355,59.199,131.215,116.262,180.922
		c165.91,69.93,389.707,83.797,620.844,25.094c117.141,78.422,352.289,96.055,466.668,94.535
		c-108.793-99.973-133.926-164.594-140.078-217.871C1691.68,1163.273,1835.992,978.281,1783.387,779.977z"/>
	<g>
		<path d="M1275.461,692.699c-8.441-28.731-23.176-55.914-43.801-80.797c-13.785-16.617-30.016-31.945-48.238-45.578
			c-26.246-19.594-55.562-35.082-87.156-46.039c-32.738-11.305-65.902-17.047-98.602-17.074h-0.016h-0.035
			c-37.812,0-74.531,7.43-109.129,22.07c-50.113,21.211-92.742,56.309-123.277,101.492
			c-31.387,46.387-47.961,100.621-47.934,156.828c0,44.316,36.062,80.375,80.387,80.375c44.324,0,80.383-36.059,80.383-80.383
			c0.008-16.176,3.164-31.836,9.371-46.543c9.035-21.391,24.051-39.609,43.414-52.684c19.758-13.309,42.875-20.363,66.844-20.383
			c14.883,0,30.992,2.934,46.727,8.484c11.906,4.18,23.672,9.914,34.051,16.59c14.574,9.324,27.27,21.238,34.879,32.715
			c3.367,5.039,5.848,9.981,7.418,14.734c1.359,4.16,2.004,7.934,2.008,11.859c-0.008,3.652-0.586,7.231-1.82,11.176l-0.016,0.055
			c-4.535,14.367-10.316,26.992-17.668,38.578c-5.68,8.926-12.266,17.18-20.129,25.219c-11.895,12.164-26.887,23.941-48.621,38.195
			c-6.652,4.367-13.469,8.68-20.684,13.246c-8.535,5.398-17.359,10.981-26.371,16.961c-10.656,7.098-24.691,16.781-38.906,28.898
			c-11.059,9.441-20.551,18.934-29.047,29.039c-15.316,18.184-27.086,38.383-34.969,60.016
			c-8.426,22.941-12.691,48.16-12.656,74.906c0,9.938,0.594,20.332,1.754,30.855c4.512,40.801,38.832,71.555,79.828,71.555
			c2.957,0,5.953-0.16,8.91-0.492c44.055-4.875,75.934-44.68,71.062-88.738c-0.52-4.668-0.781-9.109-0.781-13.207
			c0.027-10.691,1.648-16.391,3.062-20.156c1.418-3.692,3.25-6.797,6.246-10.539c2.965-3.68,7.066-7.715,12.152-11.965
			c9.836-8.246,23.949-17.562,42.129-29.035l3.66-2.312c12.504-7.906,26.676-16.871,41.312-27.176
			c30.816-21.707,54.559-43.133,74.723-67.445c26.059-31.301,45.711-67.738,58.391-108.262l0.016-0.055
			c6.113-19.422,9.207-39.391,9.195-59.352C1283.531,729.664,1280.82,710.945,1275.461,692.699z"/>
		<path d="M949.523,1208.207c-46.035,0-83.484,37.445-83.484,83.477s37.449,83.48,83.484,83.48c46.027,0,83.477-37.449,83.477-83.48
			S995.551,1208.207,949.523,1208.207z"/>
	</g>
	<path class="st1" d="M798.633,1524.992c-4.633-0.879-9.234-1.805-13.816-2.746C789.398,1523.188,794,1524.113,798.633,1524.992z"/>
	<path class="st1" d="M1915.508,832.508c0.707,1.504,1.426,3.012,2.094,4.516C1916.934,835.519,1916.215,834.012,1915.508,832.508z"
		/>
	<path class="st1" d="M1924.527,854.633c0.406,1.172,0.855,2.348,1.238,3.519C1925.383,856.981,1924.934,855.805,1924.527,854.633z"
		/>
	<path class="st1" d="M1920.277,843.383c0.574,1.406,1.184,2.816,1.723,4.219C1921.461,846.199,1920.852,844.789,1920.277,843.383z"
		/>
	<path class="st1" d="M1785.363,680.141c2.184,1.777,4.34,3.555,6.48,5.336C1789.703,683.695,1787.547,681.918,1785.363,680.141z"/>
	<path class="st1" d="M1910.172,821.758c0.82,1.555,1.637,3.113,2.418,4.672C1911.809,824.871,1910.992,823.312,1910.172,821.758z"
		/>
	<path class="st1" d="M1327.242,1536.531c-2.484-1.023-4.914-2.086-7.352-3.141
		C1322.328,1534.445,1324.758,1535.508,1327.242,1536.531z"/>
	<path class="st1" d="M1369.91,1551.949c-2.605-0.828-5.176-1.684-7.746-2.539
		C1364.734,1550.266,1367.305,1551.121,1369.91,1551.949z"/>
	<path class="st1" d="M1897.758,800.383c1.016,1.602,2.008,3.199,2.988,4.801C1899.766,803.582,1898.773,801.984,1897.758,800.383z"
		/>
	<path class="st1" d="M1384.855,1556.508c-2.641-0.77-5.254-1.57-7.863-2.371
		C1379.602,1554.938,1382.215,1555.738,1384.855,1556.508z"/>
	<path class="st1" d="M1355.301,1547.105c-2.566-0.887-5.082-1.801-7.613-2.719
		C1350.219,1545.305,1352.734,1546.219,1355.301,1547.105z"/>
	<path class="st1" d="M1341.062,1541.965c-2.516-0.941-4.98-1.926-7.457-2.906
		C1336.082,1540.039,1338.547,1541.023,1341.062,1541.965z"/>
	<path class="st1" d="M1842.812,732.324c1.57,1.609,3.168,3.223,4.703,4.836C1845.98,735.547,1844.383,733.934,1842.812,732.324z"/>
	<path class="st1" d="M1821.082,711.129c1.859,1.727,3.719,3.449,5.535,5.18C1824.797,714.578,1822.941,712.856,1821.082,711.129z"
		/>
	<path class="st1" d="M1832.133,721.644c1.734,1.691,3.48,3.379,5.18,5.066C1835.613,725.023,1833.867,723.336,1832.133,721.644z"/>
	<path class="st1" d="M1809.59,700.707c1.977,1.754,3.949,3.508,5.887,5.266C1813.539,704.215,1811.566,702.461,1809.59,700.707z"/>
	<path class="st1" d="M1890.695,789.742c1.105,1.594,2.164,3.188,3.23,4.785C1892.859,792.93,1891.801,791.336,1890.695,789.742z"/>
	<path class="st1" d="M1797.676,690.375c2.09,1.769,4.164,3.543,6.207,5.32C1801.84,693.918,1799.766,692.144,1797.676,690.375z"/>
	<path class="st1" d="M1874.918,768.512c1.215,1.527,2.371,3.055,3.555,4.578C1877.289,771.566,1876.133,770.039,1874.918,768.512z"
		/>
	<path class="st1" d="M1883.082,779.121c1.172,1.574,2.293,3.148,3.43,4.719C1885.375,782.269,1884.254,780.695,1883.082,779.121z"
		/>
	<path class="st1" d="M1853.734,743.859c1.395,1.527,2.812,3.051,4.184,4.574C1856.547,746.91,1855.129,745.387,1853.734,743.859z"
		/>
	<path class="st1" d="M1866.227,757.938c1.18,1.394,2.297,2.789,3.453,4.184C1868.523,760.727,1867.406,759.332,1866.227,757.938z"
		/>
	<path class="st1" d="M1904.25,811.059c0.922,1.582,1.828,3.164,2.711,4.75C1906.078,814.223,1905.172,812.641,1904.25,811.059z"/>
	<path class="st1" d="M1591.824,1593.184c-3.023-0.277-6.051-0.551-9.105-0.844
		C1585.773,1592.641,1588.801,1592.906,1591.824,1593.184z"/>
	<path class="st1" d="M1400.109,1560.793c-2.688-0.723-5.352-1.469-8.016-2.219
		C1394.758,1559.324,1397.422,1560.07,1400.109,1560.793z"/>
	<path class="st1" d="M1575.992,1591.66c-2.965-0.301-5.934-0.602-8.926-0.926
		C1570.059,1591.059,1573.027,1591.359,1575.992,1591.66z"/>
	<path class="st1" d="M1623.66,1595.738c-3.434-0.234-6.871-0.477-10.355-0.742
		C1616.789,1595.262,1620.223,1595.496,1623.66,1595.738z"/>
	<path class="st1" d="M1607.555,1594.527c-3.133-0.25-6.258-0.496-9.422-0.773
		C1601.297,1594.031,1604.422,1594.277,1607.555,1594.527z"/>
	<path class="st1" d="M1527.867,1585.926c-2.875-0.395-5.746-0.789-8.625-1.203
		C1522.121,1585.137,1524.992,1585.531,1527.867,1585.926z"/>
	<path class="st1" d="M1313.898,1530.789c-2.473-1.109-4.867-2.266-7.277-3.406
		C1309.031,1528.523,1311.426,1529.68,1313.898,1530.789z"/>
	<path class="st1" d="M1511.699,1583.602c-2.855-0.43-5.707-0.859-8.566-1.309
		C1505.992,1582.742,1508.844,1583.172,1511.699,1583.602z"/>
	<path class="st1" d="M1543.934,1588.027c-2.867-0.355-5.734-0.711-8.621-1.094
		C1538.199,1587.316,1541.066,1587.672,1543.934,1588.027z"/>
	<path class="st1" d="M1656.945,1597.695c-9.332-0.441-18.949-0.984-28.801-1.637
		C1637.996,1596.711,1647.613,1597.254,1656.945,1597.695z"/>
	<path class="st1" d="M1560.027,1589.945c-2.91-0.332-5.82-0.66-8.746-1.004C1554.207,1589.289,1557.117,1589.613,1560.027,1589.945
		z"/>
	<path class="st1" d="M1447.191,1572.047c-2.766-0.586-5.531-1.184-8.289-1.789
		C1441.66,1570.863,1444.426,1571.461,1447.191,1572.047z"/>
	<path class="st1" d="M1463.207,1575.285c-2.789-0.539-5.578-1.094-8.355-1.66
		C1457.633,1574.191,1460.418,1574.746,1463.207,1575.285z"/>
	<path class="st1" d="M1670.672,1598.277c-3.84-0.148-7.766-0.316-11.719-0.492
		C1662.906,1597.961,1666.832,1598.129,1670.672,1598.277z"/>
	<path class="st1" d="M1415.609,1564.805c-2.723-0.676-5.426-1.371-8.133-2.07
		C1410.184,1563.434,1412.887,1564.129,1415.609,1564.805z"/>
	<path class="st1" d="M1479.332,1578.289c-2.816-0.5-5.625-1.008-8.441-1.531
		C1473.707,1577.281,1476.516,1577.789,1479.332,1578.289z"/>
	<path class="st1" d="M1431.316,1568.551c-2.754-0.629-5.492-1.273-8.23-1.926
		C1425.824,1567.277,1428.562,1567.922,1431.316,1568.551z"/>
	<path class="st1" d="M1708.824,1599.176c-2.484-0.02-5.062-0.062-7.625-0.098
		C1703.77,1599.113,1706.332,1599.156,1708.824,1599.176z"/>
	<path class="st1" d="M1683.898,1598.711c-3.09-0.09-6.262-0.195-9.434-0.309
		C1677.637,1598.516,1680.809,1598.621,1683.898,1598.711z"/>
	<path class="st1" d="M1718.965,1599.23c0.414,0,0.785-0.012,1.195-0.012c-2.215,0.004-4.5-0.004-6.789-0.02
		C1715.234,1599.207,1717.152,1599.23,1718.965,1599.23z"/>
	<path class="st1" d="M1495.496,1581.059c-2.828-0.461-5.66-0.934-8.492-1.418
		C1489.836,1580.125,1492.668,1580.598,1495.496,1581.059z"/>
	<path class="st1" d="M1696.637,1599.008c-2.703-0.047-5.48-0.121-8.262-0.188
		C1691.156,1598.887,1693.934,1598.957,1696.637,1599.008z"/>
	<path class="st1" d="M1301.027,1524.727c-2.48-1.219-4.871-2.492-7.285-3.754
		C1296.156,1522.234,1298.547,1523.508,1301.027,1524.727z"/>
	<path class="st1" d="M927.488,1540.102c-4.777-0.242-9.52-0.551-14.266-0.852C917.969,1539.551,922.707,1539.859,927.488,1540.102z
		"/>
	<path class="st1" d="M1288.715,1518.352c-2.645-1.441-5.191-2.93-7.754-4.418C1283.523,1515.422,1286.07,1516.91,1288.715,1518.352
		z"/>
	<path class="st1" d="M1772.621,669.981c2.27,1.773,4.512,3.559,6.746,5.34C1777.133,673.539,1774.891,671.754,1772.621,669.981z"/>
	<path class="st1" d="M900.91,1538.426c-4.77-0.367-9.5-0.793-14.23-1.223C891.41,1537.633,896.141,1538.059,900.91,1538.426z"/>
	<path class="st1" d="M750.266,1514.348c-4.539-1.141-9.043-2.32-13.523-3.531C741.223,1512.027,745.727,1513.207,750.266,1514.348z
		"/>
	<path class="st1" d="M1276.98,1511.648c-3.805-2.293-7.516-4.645-11.109-7.047
		C1269.465,1507.004,1273.176,1509.355,1276.98,1511.648z"/>
	<path class="st1" d="M874.699,1536.07c-4.742-0.492-9.445-1.047-14.144-1.602C865.258,1535.023,869.957,1535.578,874.699,1536.07z"
		/>
	<path class="st1" d="M774.191,1519.988c-4.586-1.008-9.133-2.055-13.664-3.133C765.059,1517.934,769.605,1518.98,774.191,1519.988z
		"/>
	<path class="st1" d="M823.539,1529.34c-4.676-0.742-9.312-1.543-13.941-2.359C814.227,1527.797,818.863,1528.598,823.539,1529.34z"
		/>
	<path class="st1" d="M848.91,1533.043c-4.715-0.625-9.391-1.301-14.062-1.984C839.519,1531.742,844.195,1532.418,848.91,1533.043z"
		/>
	<path class="st1" d="M1009.535,1540.945c-7.742,0.219-15.449,0.344-23.121,0.402
		C994.086,1541.289,1001.793,1541.164,1009.535,1540.945z"/>
	<path class="st1" d="M954.438,1541.086c-4.777-0.117-9.519-0.305-14.266-0.48C944.918,1540.781,949.66,1540.969,954.438,1541.086z"
		/>
	<path class="st1" d="M1265.871,1504.602c-8.621,2.195-17.227,4.246-25.824,6.234
		C1248.641,1508.848,1257.25,1506.797,1265.871,1504.602z"/>
	<path class="st1" d="M1091.723,1535.559c-16.941,1.727-33.762,3.066-50.453,4.02
		C1057.961,1538.625,1074.785,1537.285,1091.723,1535.559z"/>
	<path class="st1" d="M726.859,1508.074c-4.484-1.277-8.941-2.586-13.371-3.934C717.918,1505.488,722.375,1506.797,726.859,1508.074
		z"/>
	<path class="st1" d="M1121.812,1532.113c-8.426,1.078-16.824,2.055-25.199,2.941
		C1104.988,1534.168,1113.387,1533.191,1121.812,1532.113z"/>
	<path class="st1" d="M978.934,1541.406c1.211,0,2.426-0.027,3.633-0.027c-5.039,0.016-10.031-0.07-15.039-0.125
		C971.336,1541.293,975.109,1541.406,978.934,1541.406z"/>
	<path class="st1" d="M1036.496,1539.844c-8.262,0.434-16.5,0.797-24.695,1.047
		C1019.996,1540.641,1028.234,1540.277,1036.496,1539.844z"/>
	<path class="st1" d="M1234.402,1512.133c-8.469,1.918-16.926,3.754-25.363,5.477
		C1217.477,1515.887,1225.934,1514.051,1234.402,1512.133z"/>
	<path class="st1" d="M1177.789,1523.555c-8.426,1.496-16.828,2.887-25.219,4.191
		C1160.961,1526.441,1169.363,1525.051,1177.789,1523.555z"/>
	<path class="st1" d="M1148.098,1528.422c-7.848,1.18-15.672,2.289-23.473,3.316
		C1132.426,1530.711,1140.25,1529.602,1148.098,1528.422z"/>
	<path class="st1" d="M1205.844,1518.242c-7.809,1.574-15.602,3.055-23.387,4.465
		C1190.242,1521.297,1198.035,1519.816,1205.844,1518.242z"/>
	<path class="st1" d="M1664.523,596.582c2.984,1.777,5.961,3.559,8.906,5.348C1670.484,600.141,1667.508,598.363,1664.523,596.582z"
		/>
	<path class="st1" d="M704.019,1501.184c-4.438-1.418-8.848-2.855-13.219-4.344C695.172,1498.328,699.582,1499.766,704.019,1501.184
		z"/>
	<path class="st1" d="M1648.727,587.305c3.016,1.742,6.02,3.484,9.004,5.238C1654.746,590.789,1651.742,589.047,1648.727,587.305z"
		/>
	<path class="st1" d="M1632.598,578.133c3.059,1.715,6.102,3.43,9.133,5.156C1638.699,581.562,1635.656,579.848,1632.598,578.133z"
		/>
	<path class="st1" d="M512.254,1401.426c-4.273-3.453-8.512-6.93-12.609-10.5C503.742,1394.496,507.98,1397.973,512.254,1401.426z"
		/>
	<path class="st1" d="M527.758,1413.43c-4.141-3.078-8.262-6.16-12.262-9.336C519.496,1407.266,523.617,1410.352,527.758,1413.43z"
		/>
	<path class="st1" d="M1599.406,560.156c3.164,1.66,6.297,3.332,9.434,5.004C1605.703,563.488,1602.57,561.816,1599.406,560.156z"/>
	<path class="st1" d="M1759.441,659.879c2.391,1.793,4.73,3.602,7.086,5.402C1764.172,663.481,1761.832,661.672,1759.441,659.879z"
		/>
	<path class="st1" d="M1745.859,649.863c2.551,1.844,5.047,3.699,7.555,5.555C1750.906,653.562,1748.41,651.707,1745.859,649.863z"
		/>
	<path class="st1" d="M1679.941,605.938c2.949,1.82,5.914,3.641,8.828,5.477C1685.855,609.578,1682.898,607.762,1679.941,605.938z"
		/>
	<path class="st1" d="M1709.074,624.508c10.715,7.066,21.133,14.203,31.254,21.414
		C1730.215,638.711,1719.789,631.574,1709.074,624.508z"/>
	<path class="st1" d="M1694.957,615.356c2.949,1.887,5.918,3.766,8.832,5.66C1700.875,619.121,1697.906,617.242,1694.957,615.356z"
		/>
	<path class="st1" d="M1616.16,569.086c3.105,1.684,6.191,3.375,9.27,5.07C1622.352,572.461,1619.266,570.769,1616.16,569.086z"/>
	<path class="st1" d="M618.644,1467.609c-4.219-2.012-8.426-4.031-12.562-6.113C610.219,1463.578,614.418,1465.598,618.644,1467.609
		z"/>
	<path class="st1" d="M579.957,1447.418c-4.133-2.363-8.258-4.727-12.293-7.172C571.699,1442.691,575.824,1445.055,579.957,1447.418
		z"/>
	<path class="st1" d="M639.027,1476.883c-4.269-1.855-8.527-3.723-12.719-5.648C630.5,1473.16,634.758,1475.027,639.027,1476.883z"
		/>
	<path class="st1" d="M681.746,1493.68c-4.383-1.559-8.742-3.141-13.062-4.766C673.004,1490.539,677.363,1492.121,681.746,1493.68z"
		/>
	<path class="st1" d="M660.074,1485.574c-4.324-1.703-8.633-3.418-12.883-5.195C651.441,1482.156,655.75,1483.871,660.074,1485.574z
		"/>
	<path class="st1" d="M598.938,1457.777c-4.168-2.176-8.332-4.359-12.414-6.613C590.605,1453.418,594.762,1455.602,598.938,1457.777
		z"/>
	<path class="st1" d="M544.316,1425.195c-4.106-2.793-8.207-5.598-12.188-8.488C536.109,1419.598,540.211,1422.402,544.316,1425.195
		z"/>
	<path class="st1" d="M561.734,1436.543c-4.109-2.566-8.211-5.137-12.211-7.789C553.523,1431.406,557.625,1433.977,561.734,1436.543
		z"/>
	<path class="st2" d="M1928.891,868.676c-0.926-3.5-1.977-7.012-3.125-10.523c-0.383-1.172-0.832-2.348-1.238-3.519
		c-0.812-2.344-1.625-4.684-2.527-7.031c-0.539-1.402-1.148-2.812-1.723-4.219c-0.863-2.121-1.734-4.238-2.676-6.359
		c-0.668-1.504-1.387-3.012-2.094-4.516c-0.945-2.027-1.902-4.051-2.918-6.078c-0.781-1.559-1.598-3.117-2.418-4.672
		c-1.043-1.984-2.105-3.969-3.211-5.949c-0.883-1.586-1.789-3.168-2.711-4.75c-1.133-1.957-2.305-3.918-3.504-5.875
		c-0.98-1.602-1.973-3.199-2.988-4.801c-1.246-1.949-2.535-3.902-3.832-5.856c-1.066-1.598-2.125-3.191-3.23-4.785
		c-1.359-1.965-2.773-3.934-4.184-5.902c-1.137-1.57-2.258-3.144-3.43-4.719c-1.496-2.012-3.055-4.019-4.609-6.031
		c-1.184-1.523-2.34-3.051-3.555-4.578c-1.699-2.129-3.477-4.262-5.238-6.391c-1.156-1.394-2.273-2.789-3.453-4.184
		c-2.695-3.172-5.477-6.34-8.309-9.504c-1.371-1.523-2.789-3.047-4.184-4.574c-2.055-2.234-4.094-4.469-6.219-6.699
		c-1.535-1.613-3.133-3.227-4.703-4.836c-1.824-1.871-3.629-3.742-5.5-5.613c-1.699-1.688-3.445-3.375-5.18-5.066
		c-1.824-1.781-3.645-3.562-5.516-5.336c-1.816-1.73-3.676-3.453-5.535-5.18c-1.859-1.723-3.711-3.441-5.605-5.156
		c-1.938-1.758-3.91-3.512-5.887-5.266c-1.887-1.672-3.785-3.344-5.707-5.012c-2.043-1.777-4.117-3.551-6.207-5.32
		c-1.926-1.637-3.871-3.266-5.832-4.898c-2.141-1.781-4.297-3.559-6.48-5.336c-1.977-1.609-3.988-3.215-5.996-4.82
		c-2.234-1.781-4.477-3.566-6.746-5.34c-2.012-1.57-4.059-3.133-6.094-4.699c-2.355-1.801-4.695-3.609-7.086-5.402
		c-1.988-1.492-4.012-2.977-6.027-4.461c-2.508-1.856-5.004-3.711-7.555-5.555c-1.824-1.316-3.688-2.625-5.531-3.941
		c-10.121-7.211-20.539-14.348-31.254-21.414c-1.762-1.16-3.504-2.328-5.285-3.492c-2.914-1.895-5.883-3.773-8.832-5.66
		c-2.062-1.312-4.109-2.633-6.188-3.941c-2.914-1.836-5.879-3.656-8.828-5.477c-2.168-1.336-4.324-2.676-6.512-4.008
		c-2.945-1.789-5.922-3.57-8.906-5.348c-2.258-1.351-4.516-2.695-6.793-4.039c-2.984-1.754-5.988-3.496-9.004-5.238
		c-2.32-1.34-4.652-2.68-6.996-4.016c-3.031-1.727-6.074-3.441-9.133-5.156c-2.379-1.328-4.773-2.652-7.168-3.977
		c-3.078-1.695-6.164-3.387-9.27-5.07c-2.43-1.312-4.879-2.621-7.32-3.926c-3.137-1.672-6.27-3.344-9.434-5.004
		c-0.648-0.34-1.285-0.683-1.934-1.023c0.035,0.023,0.066,0.051,0.105,0.078c97.703,70.145,166.176,146.758,185.809,220.766
		c52.605,198.305-91.707,383.297-336.434,512.594c6.152,53.277,31.285,117.898,140.078,217.871
		c-114.379,1.52-349.527-16.113-466.668-94.535c-231.137,58.703-454.934,44.836-620.844-25.094c-0.004,0-0.016,0-0.023-0.008
		c0.051,0.043,0.102,0.082,0.148,0.121c4.098,3.57,8.336,7.047,12.609,10.5c1.086,0.879,2.137,1.789,3.242,2.668
		c4,3.176,8.121,6.258,12.262,9.336c1.465,1.086,2.891,2.203,4.371,3.277c3.98,2.891,8.082,5.695,12.188,8.488
		c1.742,1.184,3.445,2.398,5.207,3.559c4,2.652,8.102,5.223,12.211,7.789c1.977,1.234,3.93,2.488,5.93,3.703
		c4.035,2.445,8.16,4.809,12.293,7.172c2.188,1.246,4.356,2.516,6.566,3.746c4.082,2.254,8.246,4.438,12.414,6.613
		c2.379,1.246,4.738,2.504,7.144,3.719c4.137,2.082,8.344,4.102,12.562,6.113c2.547,1.211,5.086,2.438,7.664,3.625
		c4.191,1.926,8.449,3.793,12.719,5.648c2.711,1.172,5.422,2.352,8.164,3.496c4.25,1.777,8.559,3.492,12.883,5.195
		c2.859,1.125,5.723,2.246,8.609,3.34c4.32,1.625,8.68,3.207,13.062,4.766c3.004,1.07,6.016,2.125,9.055,3.16
		c4.371,1.488,8.781,2.926,13.219,4.344c3.141,1,6.297,1.992,9.469,2.957c4.43,1.348,8.887,2.656,13.371,3.934
		c3.281,0.93,6.574,1.844,9.883,2.742c4.48,1.211,8.984,2.391,13.523,3.531c3.402,0.852,6.824,1.691,10.262,2.508
		c4.531,1.078,9.078,2.125,13.664,3.133c3.523,0.773,7.07,1.52,10.625,2.258c4.582,0.941,9.184,1.867,13.816,2.746
		c3.637,0.688,7.301,1.34,10.965,1.988c4.629,0.816,9.266,1.617,13.941,2.359c3.75,0.602,7.531,1.164,11.309,1.719
		c4.672,0.684,9.348,1.359,14.062,1.984c3.863,0.508,7.754,0.961,11.645,1.426c4.699,0.555,9.402,1.109,14.144,1.602
		c3.977,0.41,7.981,0.766,11.981,1.133c4.73,0.43,9.461,0.855,14.23,1.223c4.086,0.309,8.207,0.562,12.312,0.824
		c4.746,0.301,9.488,0.609,14.266,0.852c4.211,0.203,8.449,0.344,12.684,0.504c4.746,0.176,9.488,0.363,14.266,0.48
		c4.344,0.098,8.723,0.121,13.09,0.168c5.008,0.055,10,0.141,15.039,0.125c1.281-0.012,2.566-0.027,3.848-0.031
		c7.672-0.059,15.379-0.184,23.121-0.402c0.758-0.023,1.508-0.031,2.266-0.055c8.195-0.25,16.434-0.613,24.695-1.047
		c1.594-0.082,3.184-0.176,4.773-0.266c16.691-0.953,33.512-2.293,50.453-4.02c1.633-0.168,3.258-0.328,4.891-0.504
		c8.375-0.887,16.773-1.863,25.199-2.941c0.938-0.117,1.875-0.254,2.812-0.375c7.801-1.027,15.625-2.137,23.473-3.316
		c1.496-0.23,2.98-0.445,4.473-0.676c8.391-1.305,16.793-2.695,25.219-4.191c1.555-0.273,3.117-0.566,4.668-0.848
		c7.785-1.41,15.578-2.891,23.387-4.465c1.066-0.215,2.129-0.414,3.195-0.633c8.438-1.723,16.895-3.559,25.363-5.477
		c1.879-0.43,3.762-0.863,5.645-1.297c8.598-1.988,17.203-4.039,25.824-6.234c3.594,2.402,7.305,4.754,11.109,7.047
		c1.297,0.777,2.664,1.516,3.98,2.285c2.562,1.488,5.109,2.977,7.754,4.418c1.641,0.895,3.352,1.746,5.027,2.621
		c2.414,1.262,4.805,2.535,7.285,3.754c1.832,0.91,3.727,1.773,5.594,2.656c2.41,1.141,4.805,2.297,7.277,3.406
		c1.965,0.887,3.988,1.734,5.992,2.602c2.438,1.055,4.867,2.117,7.352,3.141c2.094,0.859,4.238,1.688,6.363,2.527
		c2.477,0.98,4.941,1.965,7.457,2.906c2.184,0.828,4.406,1.621,6.625,2.422c2.531,0.918,5.047,1.832,7.613,2.719
		c2.27,0.781,4.566,1.543,6.863,2.305c2.57,0.855,5.141,1.711,7.746,2.539c2.344,0.742,4.711,1.465,7.082,2.188
		c2.609,0.801,5.223,1.602,7.863,2.371c2.398,0.703,4.816,1.387,7.238,2.066c2.664,0.75,5.328,1.496,8.016,2.219
		c2.449,0.66,4.906,1.301,7.367,1.941c2.707,0.699,5.41,1.395,8.133,2.07c2.484,0.617,4.977,1.223,7.477,1.82
		c2.738,0.652,5.477,1.297,8.23,1.926c2.52,0.582,5.047,1.145,7.586,1.707c2.758,0.605,5.523,1.203,8.289,1.789
		c2.551,0.531,5.098,1.062,7.66,1.578c2.777,0.566,5.566,1.121,8.355,1.66c2.559,0.496,5.117,0.988,7.684,1.473
		c2.816,0.523,5.625,1.031,8.441,1.531c2.559,0.457,5.113,0.91,7.672,1.352c2.832,0.484,5.664,0.957,8.492,1.418
		c2.551,0.418,5.09,0.836,7.637,1.234c2.859,0.449,5.711,0.879,8.566,1.309c2.52,0.379,5.031,0.758,7.543,1.121
		c2.879,0.414,5.75,0.809,8.625,1.203c2.484,0.34,4.973,0.684,7.445,1.008c2.887,0.383,5.754,0.738,8.621,1.094
		c2.453,0.312,4.91,0.621,7.348,0.914c2.926,0.344,5.836,0.672,8.746,1.004c2.348,0.262,4.699,0.539,7.039,0.789
		c2.992,0.324,5.961,0.625,8.926,0.926c2.246,0.227,4.496,0.461,6.727,0.68c3.055,0.293,6.082,0.566,9.105,0.844
		c2.105,0.195,4.219,0.395,6.309,0.57c3.164,0.277,6.289,0.523,9.422,0.773c1.914,0.16,3.848,0.32,5.75,0.469
		c3.484,0.266,6.922,0.508,10.355,0.742c1.492,0.105,3.004,0.219,4.484,0.32c9.852,0.652,19.469,1.195,28.801,1.637
		c0.68,0.031,1.332,0.059,2.008,0.09c3.953,0.176,7.879,0.344,11.719,0.492c1.289,0.047,2.523,0.082,3.793,0.125
		c3.172,0.113,6.344,0.219,9.434,0.309c1.523,0.047,2.98,0.074,4.477,0.109c2.781,0.066,5.559,0.141,8.262,0.188
		c1.547,0.031,3.039,0.047,4.562,0.07c2.562,0.035,5.141,0.078,7.625,0.098c1.551,0.016,3.031,0.016,4.547,0.023
		c2.289,0.016,4.574,0.023,6.789,0.02c4.254,0,8.406-0.027,12.375-0.078c-108.793-99.969-133.922-164.602-140.078-217.875
		C1837.184,1251.973,1981.496,1066.98,1928.891,868.676z"/>
	<g>
		<path class="st3" d="M1254.895,698.738c-8.105-27.594-22.27-52.078-39.742-73.16c-13.133-15.828-28.191-29.84-44.566-42.086
			c-24.59-18.359-52.137-32.824-81.344-42.953c-29.211-10.09-60.133-15.867-91.594-15.891h-0.035
			c-35.578,0-69.773,7.254-100.777,20.375c-46.539,19.699-85.957,52.453-113.867,93.75c-27.914,41.258-44.285,91.395-44.262,144.82
			c0,32.555,26.395,58.949,58.953,58.949c32.555,0,58.949-26.395,58.949-58.949c0.008-19.641,3.945-38.039,11.059-54.883
			c10.66-25.234,28.625-46.891,51.164-62.109c22.586-15.215,49.406-24.027,78.816-24.055h0.16c16.977,0,35.68,3.34,53.719,9.703
			c13.57,4.766,26.738,11.199,38.52,18.777c17.715,11.336,32.117,25.277,41.148,38.902c4.551,6.812,7.809,13.504,9.91,19.871
			c2.094,6.391,3.074,12.43,3.086,18.543c-0.012,5.551-0.805,11.231-2.793,17.59l0.004-0.016
			c-5.48,17.391-12.273,31.476-20.051,43.738c-6.812,10.715-14.426,20.062-22.906,28.727
			c-14.805,15.141-32.453,28.188-52.191,41.129c-14.785,9.719-30.664,19.332-46.949,30.144
			c-12.207,8.125-24.656,16.949-36.859,27.352c-9.144,7.805-18.144,16.527-26.539,26.519
			c-12.586,14.941-23.734,32.949-31.238,53.555c-7.563,20.598-11.395,43.43-11.363,67.547c0,9.262,0.543,18.766,1.621,28.527
			c3.34,30.16,28.871,52.477,58.523,52.477c2.164,0,4.352-0.117,6.555-0.363c32.359-3.578,55.691-32.719,52.109-65.07
			c-0.637-5.758-0.91-10.922-0.91-15.57c0.031-12.496,1.875-20.867,4.422-27.676c2.289-5.953,5.231-10.973,9.602-16.426
			c3.812-4.738,8.797-9.719,15.156-15.016c11.07-9.301,26.391-19.34,44.414-30.707c13.504-8.551,28.477-17.914,44.066-28.887
			c23.348-16.445,48.219-36.672,70.566-63.606c22.363-26.863,41.766-60.465,54.449-101.047l0.008-0.016
			c5.504-17.5,8.215-35.402,8.203-52.906C1262.098,731.191,1259.516,714.477,1254.895,698.738z"/>
		<path class="st3" d="M949.523,1229.641c-34.269,0-62.047,27.781-62.047,62.043c0,34.266,27.777,62.043,62.047,62.043
			c34.262,0,62.043-27.777,62.043-62.043C1011.566,1257.422,983.785,1229.641,949.523,1229.641z"/>
	</g>
	<path d="M603.91,1366.262c-3.879-1.52-8.262-2.789-12.648-5.207c-2.219-1.098-4.527-2.242-6.926-3.422
		c-2.285-1.387-4.652-2.828-7.102-4.309c-9.566-6.219-19.77-14.137-29.527-24.266c-2.551-2.395-4.934-5.09-7.324-7.863
		c-2.379-2.789-4.984-5.422-7.227-8.508c-2.352-2.973-4.742-5.992-7.172-9.066c-2.266-3.203-4.57-6.445-6.902-9.742
		c-9.055-13.387-17.762-28.09-25.832-43.859c-15.922-31.625-29.984-66.992-40.926-103.426
		c-5.855-18.094-10.738-36.527-15.258-54.738c-4.207-18.289-8.602-36.266-11.832-53.898c-0.848-4.402-1.684-8.766-2.516-13.09
		c-0.766-4.34-1.52-8.637-2.262-12.883c-1.613-8.492-2.953-16.836-4.191-24.977c-1.367-8.121-2.391-16.066-3.48-23.75
		c-1.156-7.672-2.215-15.098-3.035-22.25c-1.82-14.293-3.246-27.441-4.574-39.106c-1.164-11.688-2.176-21.871-3.016-30.262
		c-0.629-8.434-1.363-15.055-1.758-19.574c-0.43-4.52-0.652-6.926-0.652-6.926s-0.18,2.414-0.504,6.938
		c-0.297,4.527-0.883,11.164-1.328,19.613c-0.293,8.457-0.797,18.769-0.891,30.594c-0.035,11.808-0.164,25.16,0.512,39.707
		c0.18,7.277,0.566,14.856,1.043,22.695c0.387,7.852,1.055,15.945,1.863,24.262c0.723,8.324,1.531,16.867,2.605,25.586
		c0.879,8.742,2.215,17.617,3.633,26.633c2.73,18.051,6.027,36.668,10.25,55.41c4.383,18.703,9.145,37.656,14.926,56.363
		c5.773,18.688,12.582,37.09,19.906,54.961c1.883,4.449,3.762,8.875,5.629,13.289c2.074,4.32,4.137,8.625,6.188,12.898
		c1.992,4.301,4.207,8.473,6.41,12.613c2.246,4.117,4.242,8.312,6.641,12.277c8.891,16.191,19.148,30.973,29.574,44.402
		c10.301,13.543,21.84,25.023,33.148,34.719c11.199,9.863,23.063,17.07,33.906,22.398c2.754,1.262,5.418,2.48,7.988,3.664
		c2.633,1.023,5.254,1.832,7.73,2.668c4.883,1.852,9.68,2.57,13.863,3.555c4.164,1.07,8.094,1.023,11.371,1.449
		c3.293,0.445,6.141,0.238,8.422,0.203c4.535-0.141,6.961-0.215,6.961-0.215s-2.395-0.355-6.883-1.016
		C618.246,1370.391,611.793,1368.727,603.91,1366.262z"/>
	<path d="M1478.422,589.188c6.23,1.059,13.68,2.988,22.086,5.289c8.355,2.516,17.66,5.633,27.422,9.871
		c9.828,4.058,19.957,9.558,30.402,15.617c10.387,6.231,20.633,13.84,30.949,21.981c10.242,8.289,19.836,17.969,29.395,27.934
		c9.465,10.082,18.125,21.211,26.238,32.695c8.316,11.367,15.562,23.512,22.266,35.688c6.531,12.277,12.605,24.598,17.742,36.887
		c4.891,12.367,9.652,24.387,13.242,36.125c0.922,2.934,1.824,5.82,2.723,8.668c0.793,2.879,1.578,5.711,2.352,8.5
		c1.703,5.547,2.988,10.996,4.266,16.234c1.395,5.215,2.289,10.297,3.359,15.113c1.125,4.805,1.996,9.406,2.723,13.746
		c1.629,8.683,2.715,16.266,3.691,22.566c1.68,12.699,2.637,19.953,2.637,19.953s0.176-1.824,0.508-5.246
		c0.219-3.426,0.914-8.418,1.094-14.84c0.172-6.418,0.605-14.305,0.188-23.266c-0.066-4.496-0.234-9.281-0.637-14.316
		c-0.324-5.047-0.754-10.352-1.5-15.852c-0.668-5.512-1.32-11.273-2.391-17.184c-0.895-5.938-2.164-12.016-3.621-18.238
		c-2.711-12.496-6.398-25.523-11.062-38.73c-4.863-13.121-10.16-26.668-17.016-39.754c-6.887-13.055-14.387-26.102-23.062-38.414
		c-8.852-12.176-18.363-23.898-28.707-34.566c-10.293-10.723-21.523-20.18-32.871-28.633c-11.438-8.344-23.203-15.418-34.848-21.102
		c-11.652-5.664-23.055-10.176-33.918-13.156c-10.738-3.34-20.926-5.09-29.898-6.312c-9.004-1.152-16.879-1.594-23.348-1.504
		c-6.453-0.207-11.52,0.398-14.945,0.621c-3.426,0.293-5.246,0.449-5.246,0.449s1.812,0.269,5.215,0.781
		C1467.242,587.258,1472.203,587.898,1478.422,589.188z"/>
</g>
</svg>
